<svg id="Layer_1" data-name="Layer 1" xmlns="http://www.w3.org/2000/svg" viewBox="0 0 386.28 95.83"><defs><style>.cls-1{fill:#3cba74;}</style></defs><title>sabbir</title><path class="cls-1" d="M155.05,209.53a56.22,56.22,0,0,1,13.77,1.72,42.64,42.64,0,0,1,6.86,2.31,7,7,0,0,1,4.07,6.38v5.75a7.05,7.05,0,0,1-9.95,6.4l-.1-.05a29,29,0,0,0-11.7-2.18,17.42,17.42,0,0,0-6.73,1.18,4,4,0,0,0-2.84,3.9q0,3,3.43,4.43t8.39,3.37l8.51,3.19q8.63,3.3,12.23,9a21,21,0,0,1,3.6,11.34,21.84,21.84,0,0,1-4.37,13.41,29.61,29.61,0,0,1-11.82,9.22,39.87,39.87,0,0,1-16.66,3.37,41.81,41.81,0,0,1-14.06-2.48,54.51,54.51,0,0,1-8.64-3.91,7,7,0,0,1-3.53-6.11v-5.16a7,7,0,0,1,10.06-6.33c.72.33,1.44.64,2.17.95a34.17,34.17,0,0,0,13.18,2.71,18.45,18.45,0,0,0,6.67-1,3.55,3.55,0,0,0,2.54-3.49,3.72,3.72,0,0,0-1.89-3.07,18.24,18.24,0,0,0-5.08-2.24l-11.23-3.55a25.28,25.28,0,0,1-10.28-5.79,20,20,0,0,1-5.08-8.21,31.13,31.13,0,0,1-1.41-9.28,23,23,0,0,1,4.25-14.12,26.73,26.73,0,0,1,11.11-8.68A36.27,36.27,0,0,1,155.05,209.53Z" transform="translate(-125.16 -196.42)"/><path class="cls-1" d="M219.45,228.44a22.23,22.23,0,0,1,9.28,2.07,23.08,23.08,0,0,1,7.5,5.26h0a5.56,5.56,0,0,1,5.55-5.56h9.52a5.26,5.26,0,0,1,5.25,5.26V285a5.49,5.49,0,0,1-5.49,5.5h-8.8a6,6,0,0,1-6-6v-4a21.29,21.29,0,0,1-6.85,8.39,18.09,18.09,0,0,1-11.11,3.43,24.7,24.7,0,0,1-12.64-3.43A25.34,25.34,0,0,1,196,278.25q-3.72-7.15-3.72-18,0-10.17,3.72-17.26a26.8,26.8,0,0,1,9.93-10.81A25.83,25.83,0,0,1,219.45,228.44Zm4.25,19.85a9,9,0,0,0-7.26,3.55,12.85,12.85,0,0,0-2.9,8.39,11.8,11.8,0,0,0,3,8.15,9.9,9.9,0,0,0,7.79,3.31,11.77,11.77,0,0,0,5.32-1.36,12.56,12.56,0,0,0,4.67-4.14,12.15,12.15,0,0,0,1.95-7.15v-5.79a24.85,24.85,0,0,0-5.85-3.54A16.47,16.47,0,0,0,223.7,248.29Z" transform="translate(-125.16 -196.42)"/><path class="cls-1" d="M310.2,228.44a25.85,25.85,0,0,1,13.53,3.72A26.8,26.8,0,0,1,333.66,243q3.72,7.09,3.72,17.26,0,10.86-3.67,18a24.75,24.75,0,0,1-9.63,10.57,25,25,0,0,1-12.7,3.43,18.09,18.09,0,0,1-11.11-3.43,21.29,21.29,0,0,1-6.85-8.39v5.27a4.78,4.78,0,0,1-4.78,4.78H277.87a4.78,4.78,0,0,1-4.77-4.78V210.33A4.93,4.93,0,0,1,278,205.4h10.46a4.93,4.93,0,0,1,4.93,4.93v25.44a23.08,23.08,0,0,1,7.5-5.26A22.23,22.23,0,0,1,310.2,228.44ZM306,248.29a16.16,16.16,0,0,0-6.56,1.42,27.42,27.42,0,0,0-6,3.54V259a12.15,12.15,0,0,0,1.95,7.15,12.42,12.42,0,0,0,4.73,4.14,11.92,11.92,0,0,0,5.26,1.36,9.93,9.93,0,0,0,7.79-3.31,11.8,11.8,0,0,0,3-8.15,13,13,0,0,0-2.84-8.39A8.93,8.93,0,0,0,306,248.29Z" transform="translate(-125.16 -196.42)"/><path class="cls-1" d="M386.89,228.44a25.85,25.85,0,0,1,13.53,3.72A26.77,26.77,0,0,1,410.34,243q3.74,7.09,3.73,17.26,0,10.86-3.67,18a24.75,24.75,0,0,1-9.63,10.57,25.05,25.05,0,0,1-12.7,3.43A18.09,18.09,0,0,1,377,288.82a21.2,21.2,0,0,1-6.85-8.39v7a3.06,3.06,0,0,1-3.06,3.06H352.84a3.05,3.05,0,0,1-3-3.06V209.37a4,4,0,0,1,4-4h12.38a4,4,0,0,1,4,4v26.4a23.08,23.08,0,0,1,7.5-5.26A22.2,22.2,0,0,1,386.89,228.44Zm-4.26,19.85a16.15,16.15,0,0,0-6.55,1.42,27.42,27.42,0,0,0-6,3.54V259a12.15,12.15,0,0,0,1.95,7.15,12.35,12.35,0,0,0,4.73,4.14,11.92,11.92,0,0,0,5.25,1.36,9.94,9.94,0,0,0,7.8-3.31,11.8,11.8,0,0,0,3-8.15,13,13,0,0,0-2.84-8.39A8.94,8.94,0,0,0,382.63,248.29Z" transform="translate(-125.16 -196.42)"/><path class="cls-1" d="M453.65,235.69v49.83a5,5,0,0,1-5,5H438.27a5,5,0,0,1-5-5l-.15-50.42a4.89,4.89,0,0,1,4.89-4.9h10.13A5.47,5.47,0,0,1,453.65,235.69Zm-11.46-39.27a12.55,12.55,0,0,1,6.32,1.65,13.31,13.31,0,0,1,4.67,4.43,11.66,11.66,0,0,1,0,12.35,13,13,0,0,1-4.67,4.49,12.75,12.75,0,0,1-15.18-2,11.94,11.94,0,0,1,0-17.43A12.54,12.54,0,0,1,442.19,196.42Z" transform="translate(-125.16 -196.42)"/><path class="cls-1" d="M511.43,248.7a2.59,2.59,0,0,1-3.34,2.48l-.38-.11a17.18,17.18,0,0,0-4.55-.53,11.53,11.53,0,0,0-7.32,2.48,18.23,18.23,0,0,0-4.9,5.92,2.6,2.6,0,0,0-.3,1.23v27.71a2.61,2.61,0,0,1-2.6,2.6H472.91a2.6,2.6,0,0,1-2.6-2.6V232.81a2.59,2.59,0,0,1,2.6-2.6H488a2.6,2.6,0,0,1,2.6,2.6h0a2.59,2.59,0,0,0,4.54,1.7c.58-.67,1.17-1.32,1.78-1.93a12.23,12.23,0,0,1,9.16-3.55,14,14,0,0,1,3.33.37,2.59,2.59,0,0,1,2,2.53Z" transform="translate(-125.16 -196.42)"/></svg>